<svg width="289" height="156" viewBox="0 0 289 156" fill="none" xmlns="http://www.w3.org/2000/svg">
<g clip-path="url(#clip0_467_12559)">
<path d="M288.668 79.5938H-0.41333V106.415H288.668V79.5938Z" fill="#2F9750"/>
<path d="M55.0278 17.1169C86.2521 6.38931 120.713 0.439941 156.934 0.439941C194.402 0.439941 229.989 6.80536 262.056 18.2426C229.693 13.3394 195.788 7.86777 157.219 7.86777C121.705 7.86777 85.4135 12.9106 55.0278 17.1169Z" fill="#2F9750"/>
<path d="M18.0818 97.2994C17.8463 97.9012 17.675 98.5233 17.611 99.1234C16.4729 99.7253 14.9935 100.068 13.2333 100.068C8.2552 100.068 5.31641 96.9564 5.31641 92.9015C5.31641 86.9787 9.3279 84.7056 13.8336 84.7056C15.3365 84.7056 17.2244 85.1545 18.2111 85.7565C17.9321 86.4643 17.7825 87.2158 17.7186 87.9453H17.4177C16.345 86.6138 15.2507 86.0355 13.7275 86.0355C11.4311 86.0355 8.83514 88.031 8.83514 92.5786C8.83514 97.0002 11.4529 98.7369 13.9208 98.7369C15.2927 98.7369 16.8814 98.0945 17.8044 97.1279L18.0818 97.2994Z" fill="white"/>
<path d="M42.8875 84.7056C47.4351 84.7056 51.0195 87.1938 51.0195 92.3652C51.0195 96.6136 47.6066 100.068 42.8221 100.068C38.2946 100.068 34.6479 97.7516 34.6479 92.3853C34.6479 88.1606 37.9094 84.7056 42.8875 84.7056ZM42.8221 85.9278C39.8831 85.9278 38.1667 88.89 38.1667 92.5786C38.1667 97.1497 40.2699 98.7369 42.6724 98.7369C45.2464 98.7369 47.5007 96.5916 47.5007 91.9146C47.5007 88.2025 45.5908 85.9278 42.8221 85.9278Z" fill="white"/>
<path d="M70.4154 90.0467C69.9648 93.2864 69.7715 96.5479 69.5564 99.789C69.2133 99.7252 68.8705 99.6816 68.5493 99.6816C68.2048 99.6816 67.8836 99.7252 67.5405 99.789C68.4417 94.8547 69.1496 89.9188 69.7497 84.9829C70.0505 85.0485 70.3296 85.0921 70.6305 85.0921C70.9079 85.0921 71.209 85.0485 71.4881 84.9829C73.0549 88.3957 74.8789 92.2137 76.4441 95.2399C78.1387 92.0424 79.8989 88.3957 81.444 84.9829C81.7449 85.0485 82.0661 85.0921 82.367 85.0921C82.6662 85.0921 82.9671 85.0485 83.2679 84.9829C83.8261 89.9188 84.5761 96.763 85.1125 99.789C84.534 99.7252 83.954 99.6816 83.3757 99.6816C82.7956 99.6816 82.1955 99.7252 81.5937 99.789C81.444 96.8068 81.0792 93.1585 80.7361 89.833H80.6925C79.0835 93.1585 77.4965 96.4638 75.9514 99.789C75.8222 99.7674 75.6725 99.747 75.5432 99.747C75.4153 99.747 75.2641 99.7674 75.1362 99.789C73.6131 96.5479 72.068 93.2864 70.4575 90.0467H70.4154Z" fill="white"/>
<path d="M104.51 90.0467C104.059 93.2864 103.866 96.5479 103.651 99.789C103.308 99.7252 102.965 99.6816 102.644 99.6816C102.299 99.6816 101.978 99.7252 101.635 99.789C102.536 94.8547 103.244 89.9188 103.844 84.9829C104.145 85.0485 104.424 85.0921 104.725 85.0921C105.003 85.0921 105.303 85.0485 105.583 84.9829C107.149 88.3957 108.973 92.2137 110.539 95.2399C112.233 92.0424 113.994 88.3957 115.538 84.9829C115.84 85.0485 116.161 85.0921 116.461 85.0921C116.761 85.0921 117.062 85.0485 117.363 84.9829C117.921 89.9188 118.671 96.763 119.207 99.789C118.628 99.7252 118.049 99.6816 117.47 99.6816C116.89 99.6816 116.29 99.7252 115.688 99.789C115.538 96.8068 115.174 93.1585 114.831 89.833H114.787C113.178 93.1585 111.591 96.4638 110.046 99.789C109.917 99.7674 109.767 99.747 109.638 99.747C109.51 99.747 109.359 99.7674 109.231 99.789C107.708 96.5479 106.162 93.2864 104.552 90.0467H104.51Z" fill="white"/>
<path d="M136.693 90.9278C136.693 88.5251 136.649 86.8725 136.521 84.9829C137.787 85.0049 139.075 85.0921 140.341 85.0921C142.443 85.0921 144.245 85.0485 144.825 84.9829C144.783 85.2418 144.739 85.4991 144.739 85.8841C144.739 86.3363 144.783 86.5296 144.825 86.8506C143.194 86.7433 140.62 86.5919 139.976 86.5919C139.869 88.1605 139.869 89.7039 139.869 91.2706C141.735 91.2284 143.108 91.1848 144.739 91.0991C144.653 91.5934 144.631 91.7866 144.631 92.0642C144.631 92.3011 144.675 92.4944 144.739 92.9436C143.108 92.8156 141.499 92.7503 139.869 92.7503C139.869 93.6512 139.847 94.5742 139.847 95.4972C139.847 96.3982 139.869 97.3211 139.911 98.1787C141.521 98.1787 143.172 98.0944 144.825 97.9011C144.783 98.2005 144.739 98.4156 144.739 98.8662C144.739 99.3166 144.783 99.5319 144.825 99.789C144.053 99.7674 143.044 99.6816 141.071 99.6816C137.572 99.6816 136.994 99.747 136.521 99.789C136.649 97.9011 136.693 96.2487 136.693 93.8445V90.9278Z" fill="white"/>
<path d="M166.003 92.9652H165.81V93.8445C165.81 96.2487 165.852 97.9011 165.981 99.789C165.509 99.747 164.929 99.6816 164.221 99.6816C163.513 99.6816 162.935 99.747 162.462 99.789C162.59 97.9011 162.634 96.2487 162.634 93.8445V90.9278C162.634 88.5251 162.59 86.8725 162.462 84.9829C162.935 85.0267 163.513 85.0921 164.221 85.0921C164.994 85.0921 165.917 84.9829 167.375 84.9829C169.542 84.9829 170.337 85.1762 171.087 85.7128C171.946 86.3363 172.482 87.2794 172.482 88.5454C172.482 90.6266 171.28 91.9581 169.157 92.4944C170.53 94.9172 172.161 97.3649 173.726 99.789C173.082 99.747 172.438 99.6816 171.796 99.6816C171.152 99.6816 170.487 99.747 169.843 99.789L166.003 92.9652ZM165.873 86.2068C165.831 88.1605 165.81 90.0903 165.81 92.0424C165.981 92.0642 166.131 92.086 166.282 92.086C168.17 92.086 169.199 91.0351 169.199 89.0179C169.199 86.4858 168.212 86.2068 165.873 86.2068Z" fill="white"/>
<path d="M202.371 97.2994C202.135 97.9012 201.964 98.5233 201.9 99.1234C200.762 99.7253 199.282 100.068 197.522 100.068C192.544 100.068 189.605 96.9564 189.605 92.9015C189.605 86.9787 193.617 84.7056 198.122 84.7056C199.625 84.7056 201.513 85.1545 202.5 85.7565C202.221 86.4643 202.071 87.2158 202.007 87.9453H201.706C200.634 86.6138 199.539 86.0355 198.016 86.0355C195.72 86.0355 193.124 88.031 193.124 92.5786C193.124 97.0002 195.742 98.7369 198.21 98.7369C199.581 98.7369 201.17 98.0945 202.093 97.1279L202.371 97.2994Z" fill="white"/>
<path d="M220.181 90.9278C220.181 88.5251 220.137 86.8725 220.009 84.9829C220.482 85.0267 221.06 85.0921 221.768 85.0921C222.477 85.0921 223.056 85.0267 223.528 84.9829C223.399 86.8725 223.357 88.5251 223.357 90.9278V93.8445C223.357 96.2487 223.399 97.9011 223.528 99.789C223.056 99.747 222.477 99.6816 221.768 99.6816C221.06 99.6816 220.482 99.747 220.009 99.789C220.137 97.9011 220.181 96.2487 220.181 93.8445V90.9278Z" fill="white"/>
<path d="M254.361 99.7889C253.675 99.747 253.073 99.6816 252.473 99.6816C251.873 99.6816 251.249 99.747 250.649 99.7889C250.198 98.3298 249.706 96.8504 249.168 95.3912C248.246 95.3692 247.345 95.3474 246.422 95.3474C245.671 95.3474 244.941 95.3692 244.191 95.3912C243.611 96.8504 243.139 98.308 242.732 99.7889C242.388 99.747 242.067 99.6816 241.723 99.6816C241.381 99.6816 241.058 99.747 240.651 99.7889C241.702 97.407 244.919 89.7693 246.765 84.877C247.044 84.9191 247.302 84.9829 247.581 84.9829C247.86 84.9829 248.117 84.9191 248.396 84.877C250.22 89.7693 252.73 96.2922 254.361 99.7889ZM248.675 94.1252C248.053 92.3852 247.451 90.6923 246.765 89.0178C246.036 90.6923 245.37 92.3852 244.748 94.1252H248.675Z" fill="white"/>
<path d="M271.591 90.9278C271.591 88.5251 271.548 86.8725 271.42 84.9829C271.893 85.0267 272.471 85.0921 273.178 85.0921C273.886 85.0921 274.466 85.0267 274.939 84.9829C274.809 86.8725 274.767 88.5251 274.767 90.9278V93.8445C274.767 95.4332 274.789 97.0639 274.809 98.1787C276.418 98.1787 278.071 98.0944 279.723 97.9011C279.68 98.2005 279.638 98.4156 279.638 98.8662C279.638 99.3166 279.68 99.5319 279.723 99.789C278.952 99.7674 277.943 99.6816 275.968 99.6816C272.471 99.6816 271.893 99.747 271.42 99.789C271.548 97.9011 271.591 96.2487 271.591 93.8445V90.9278Z" fill="white"/>
<path d="M10.7913 123.551H10.5801V124.648C10.5801 127.643 10.626 129.704 10.7679 132.063C10.2519 132.007 9.62032 131.926 8.84869 131.926C8.0777 131.926 7.44716 132.007 6.93262 132.063C7.07288 129.704 7.11977 127.643 7.11977 124.648V121.009C7.11977 118.012 7.07288 115.952 6.93262 113.595C7.44716 113.649 8.0777 113.73 8.84869 113.73C9.69044 113.73 10.6977 113.595 12.2862 113.595C14.6475 113.595 15.5136 113.836 16.3312 114.507C17.2674 115.281 17.8522 116.46 17.8522 118.04C17.8522 120.632 16.5418 122.294 14.2288 122.961C15.7247 125.987 17.502 129.037 19.2077 132.063C18.5069 132.007 17.8037 131.926 17.1045 131.926C16.403 131.926 15.6779 132.007 14.9758 132.063L10.7913 123.551ZM10.6508 115.121C10.6042 117.556 10.5801 119.963 10.5801 122.4C10.7679 122.427 10.9299 122.453 11.0953 122.453C13.1524 122.453 14.2735 121.142 14.2735 118.627C14.2735 115.469 13.1991 115.121 10.6508 115.121Z" fill="white"/>
<path d="M57.1819 113.249C62.1382 113.249 66.0452 116.352 66.0452 122.802C66.0452 128.1 62.3253 132.408 57.111 132.408C52.1773 132.408 48.2026 129.519 48.2026 122.827C48.2026 117.556 51.758 113.249 57.1819 113.249ZM57.111 114.772C53.9079 114.772 52.0379 118.467 52.0379 123.069C52.0379 128.769 54.3297 130.749 56.9481 130.749C59.7528 130.749 62.2097 128.072 62.2097 122.24C62.2097 117.612 60.1285 114.772 57.111 114.772Z" fill="white"/>
<path d="M104.719 113.249C109.674 113.249 113.58 116.352 113.58 122.802C113.58 128.1 109.862 132.408 104.647 132.408C99.713 132.408 95.7397 129.519 95.7397 122.827C95.7397 117.556 99.2937 113.249 104.719 113.249ZM104.647 114.772C101.445 114.772 99.5744 118.467 99.5744 123.069C99.5744 128.769 101.866 130.749 104.485 130.749C107.289 130.749 109.747 128.072 109.747 122.24C109.747 117.612 107.664 114.772 104.647 114.772Z" fill="white"/>
<path d="M144.329 121.009C144.329 118.012 144.28 115.952 144.142 113.595C145.521 113.623 146.925 113.73 148.305 113.73C150.594 113.73 152.563 113.676 153.191 113.595C153.146 113.918 153.096 114.24 153.096 114.72C153.096 115.281 153.146 115.523 153.191 115.924C151.414 115.793 148.609 115.601 147.906 115.601C147.79 117.556 147.79 119.483 147.79 121.438C149.824 121.382 151.322 121.329 153.096 121.223C153.005 121.839 152.981 122.079 152.981 122.427C152.981 122.723 153.029 122.961 153.096 123.524C151.322 123.362 149.566 123.284 147.79 123.284V124.648C147.79 127.643 147.837 129.704 147.978 132.063C147.462 132.007 146.832 131.926 146.058 131.926C145.287 131.926 144.657 132.007 144.142 132.063C144.28 129.704 144.329 127.643 144.329 124.648V121.009Z" fill="white"/>
<path d="M184.384 121.009C184.384 118.012 184.336 115.952 184.197 113.595C184.712 113.649 185.341 113.73 186.115 113.73C186.885 113.73 187.515 113.649 188.031 113.595C187.89 115.952 187.844 118.012 187.844 121.009V124.648C187.844 127.643 187.89 129.704 188.031 132.063C187.515 132.007 186.885 131.926 186.115 131.926C185.341 131.926 184.712 132.007 184.197 132.063C184.336 129.704 184.384 127.643 184.384 124.648V121.009Z" fill="white"/>
<path d="M220.228 113.595C220.579 113.676 220.929 113.73 221.28 113.73C221.632 113.73 221.983 113.676 222.334 113.595C225.7 117.851 229.044 122.079 232.483 126.334C232.483 122.079 232.483 114.8 232.316 113.595C232.669 113.676 233.018 113.73 233.37 113.73C233.72 113.73 234.072 113.676 234.423 113.595C234.049 121.382 234.049 124.941 234.049 132.063C233.72 131.979 233.416 131.926 233.09 131.926C232.761 131.926 232.459 131.979 232.176 132.063C228.972 127.726 225.561 123.39 221.96 119.054C221.912 121.062 221.912 123.284 221.912 125.292C221.912 129.572 221.983 131.072 222.052 132.063C221.678 131.979 221.305 131.926 220.954 131.926C220.604 131.926 220.228 131.979 219.879 132.063C219.994 131.285 220.346 124.38 220.346 118.922C220.346 116.513 220.253 114.881 220.228 113.595Z" fill="white"/>
<path d="M279.736 117.584C278.756 115.979 277.259 114.909 275.129 114.909C272.231 114.909 269.239 117.662 269.239 123.284C269.239 127.54 271.319 130.749 274.919 130.749C275.717 130.749 277.094 130.56 277.468 130.268C277.539 129.841 277.539 129.171 277.539 128.396C277.539 125.506 277.399 124.301 277.374 123.789C277.678 123.845 278.149 123.927 279.105 123.927C280.226 123.927 280.697 123.845 281 123.789C280.884 124.355 280.812 126.577 280.812 128.289C280.812 129.413 280.835 130.83 280.884 131.231C278.849 131.898 276.698 132.408 274.64 132.408C269.263 132.408 265.404 128.903 265.404 123.445C265.404 116.647 269.589 113.249 275.084 113.249C277.446 113.249 279.035 113.836 280.717 114.853C280.46 115.765 280.205 116.672 280.065 117.584H279.736Z" fill="white"/>
<path fill-rule="evenodd" clip-rule="evenodd" d="M32.5982 46.9223C32.5982 54.847 32.4563 60.2959 32.0322 66.5227C33.5896 66.3808 35.4996 66.1687 37.8348 66.1687C40.1702 66.1687 42.0801 66.3808 43.6375 66.5227C43.212 60.2959 43.0701 54.847 43.0701 46.9223V37.2985C43.0701 29.3739 43.212 23.925 43.6375 17.6982C42.0801 17.8401 40.1702 18.0522 37.8348 18.0522C35.4996 18.0522 33.5896 17.8401 32.0322 17.6982C32.4563 23.8549 32.5982 29.3031 32.5982 37.1575C29.9088 37.2282 26.9373 37.2985 21.914 37.2985C16.8909 37.2985 13.4937 37.2282 11.088 37.1575C11.088 29.3031 11.2284 23.8549 11.6539 17.6982C10.0965 17.8401 8.18681 18.0522 5.85139 18.0522C3.51743 18.0522 1.60608 17.8401 0.050293 17.6982C0.474152 23.925 0.614609 29.3739 0.614609 37.2985V46.9223C0.614609 54.847 0.474152 60.2959 0.050293 66.5227C1.60608 66.3808 3.51743 66.1687 5.85139 66.1687C8.18681 66.1687 10.0965 66.3808 11.6539 66.5227C11.2284 60.2959 11.088 54.847 11.088 46.9223V42.8893C14.6958 42.7474 18.3048 42.6055 21.8425 42.6055C25.4515 42.6055 28.989 42.8183 32.5982 42.8893V46.9223Z" fill="white"/>
<path d="M48.5207 66.3434C48.837 61.7005 48.9431 57.6393 48.9431 51.7306V44.5121C48.9431 39.0851 48.7827 33.7433 48.4146 28.3311C50.3432 28.5073 52.2716 28.7333 54.2111 28.7333C56.1505 28.7333 58.0807 28.5073 60.0091 28.3311C59.6396 33.7433 59.4806 39.0851 59.4806 44.5121V51.7306C59.4806 57.1583 59.6396 62.5003 60.0091 67.9119C58.0807 67.7371 56.1505 67.5095 54.2111 67.5095C52.2716 67.5095 50.3432 67.7371 48.4146 67.9119L48.5207 66.3434Z" fill="white"/>
<path d="M100.202 32.7167C99.5195 34.8292 98.9518 36.8724 98.5654 39.0589H95.9991C93.5298 35.5309 90.6969 33.7511 86.2412 33.7511C80.5119 33.7511 74.2069 38.5007 74.2069 49.0241C74.2069 56.9642 78.5503 62.4926 85.7626 62.4926C87.2952 62.4926 89.3484 62.223 90.3117 61.9565L90.3477 61.236C90.368 60.6187 90.368 59.9172 90.368 59.1626C90.368 55.5176 90.0999 52.0595 89.9113 48.4567C91.7525 48.7397 93.3801 48.957 95.2649 48.957C97.4349 48.957 99.2139 48.7294 101.331 48.4036C100.492 51.9201 100.48 55.3235 100.48 58.9506C100.48 61.2377 100.478 63.4912 100.781 65.7574C95.6657 67.229 90.4927 68.4652 85.1265 68.4652C72.4187 68.4652 62.8198 61.1316 62.8198 49.3422C62.8198 34.932 73.1221 27.7783 86.1351 27.7783C91.9442 27.7783 95.5174 28.9882 100.55 31.644L100.202 32.7167Z" fill="white"/>
<path d="M129.908 66.3434C130.225 61.7005 130.329 57.6393 130.329 51.7306V50.0132C128.083 49.9456 125.861 49.8347 123.604 49.8347C121.387 49.8347 119.134 49.9095 116.875 49.9953V51.7306C116.875 57.1583 117.035 62.5003 117.405 67.9119C115.475 67.7371 113.546 67.5095 111.607 67.5095C109.667 67.5095 107.737 67.7371 105.809 67.9119C106.178 62.5003 106.337 57.1583 106.337 51.7306V44.5121C106.337 39.0851 106.178 33.7433 105.809 28.3311C107.737 28.5073 109.667 28.7333 111.607 28.7333C113.546 28.7333 115.476 28.5065 117.405 28.3311C117.065 33.267 116.892 38.1515 116.878 43.0997C118.549 43.1388 120.733 43.1715 123.657 43.1715C126.619 43.1715 128.625 43.1388 130.328 43.0983C130.314 38.149 130.141 33.267 129.799 28.3311C131.729 28.5065 133.658 28.7333 135.599 28.7333C137.538 28.7333 139.468 28.5073 141.395 28.3311C141.027 33.7433 140.868 39.0851 140.868 44.5121V51.7306C140.868 57.1583 141.027 62.5003 141.395 67.9119C139.468 67.7371 137.538 67.5095 135.599 67.5095C133.659 67.5095 131.729 67.7371 129.801 67.9119L129.908 66.3434Z" fill="white"/>
<path d="M147.206 66.3434C147.522 61.7005 147.627 57.6393 147.627 51.7306V44.5121C147.627 39.0851 147.468 33.7433 147.098 28.3311C149.027 28.5073 150.955 28.7333 152.896 28.7333C154.836 28.7333 156.764 28.5073 158.693 28.3311C158.325 33.7433 158.164 39.0851 158.164 44.5121V51.7306C158.164 55.0608 158.203 58.4664 158.247 61.1043C162.417 61.0544 166.521 60.7122 170.658 60.2289C170.474 61.5159 170.214 62.8448 170.214 64.1513C170.214 65.3922 170.473 66.6007 170.675 67.8198C167.043 67.7186 163.437 67.5095 159.796 67.5095C155.414 67.5095 151.384 67.522 147.098 67.9119L147.206 66.3434Z" fill="white"/>
<path d="M192.151 28.3917L193.167 28.2185L194.246 28.0518C199.21 41.3658 204.284 55.0151 210.298 67.9131C208.033 67.7712 205.726 67.5092 203.457 67.5092C201.629 67.5092 199.801 67.7167 197.979 67.8475C196.841 64.1628 195.65 60.4982 194.337 56.8719C192.382 56.8267 190.455 56.7878 188.489 56.7878C186.941 56.7878 185.43 56.8253 183.894 56.8674C182.498 60.4851 181.372 64.1731 180.343 67.9084C179.211 67.7665 178.004 67.5092 176.865 67.5092C175.334 67.5092 173.552 67.8524 172.049 68.0098C177.833 54.9044 183.417 41.439 188.467 28.0534L189.541 28.2185L190.558 28.3917C190.82 28.4339 191.082 28.468 191.356 28.468C191.627 28.468 191.889 28.4339 192.151 28.3917ZM189.296 43.3115C188.233 45.8715 187.226 48.4572 186.261 51.0803H192.157C191.219 48.4572 190.285 45.8715 189.296 43.3115Z" fill="white"/>
<path d="M211.692 66.206C211.935 64.795 212.733 51.2089 212.733 40.3721C212.733 36.2997 212.518 32.2362 212.434 28.1663C213.669 28.4135 214.927 28.7331 216.198 28.7331C217.172 28.7331 218.12 28.5351 219.069 28.3448C226.118 36.1276 233.168 43.9188 240.282 51.643C240.279 48.0307 240.269 43.8962 240.235 40.1858C240.198 36.1276 240.255 32.1256 239.63 28.1172C240.94 28.3792 242.291 28.7331 243.64 28.7331C244.929 28.7331 246.209 28.4057 247.462 28.1546C246.752 41.0915 246.521 53.4968 246.521 66.4337V68.0923C245.377 67.8475 244.186 67.5092 243.004 67.5092C242.123 67.5092 241.295 67.7262 240.448 67.9366C233.508 59.7297 226.381 51.7639 219.013 43.9384C218.971 46.966 218.973 50.0981 218.973 53.0049C218.973 58.0991 219.018 63.0256 219.428 68.0752C218.125 67.8305 216.792 67.5092 215.454 67.5092C214.074 67.5092 212.701 67.8648 211.358 68.133L211.692 66.206Z" fill="white"/>
<path fill-rule="evenodd" clip-rule="evenodd" d="M288.344 34.2056C288.344 23.3935 288.591 20.3393 289.004 11.0127C287.601 11.2595 285.207 11.425 282.814 11.425C280.421 11.425 278.026 11.2595 276.623 11.0127C277.036 20.3393 277.284 23.3935 277.284 33.2156H277.118C275.22 29.749 270.928 27.108 266.141 27.108C257.227 27.108 250.211 35.939 250.211 47.7417C250.211 59.4618 254.834 69.2012 265.976 69.2012C272.331 69.2012 275.715 65.9816 277.78 61.1954L277.943 61.3608C277.943 62.1028 277.53 67.3848 277.284 68.1285C278.356 67.8804 280.586 67.7153 282.814 67.7153C285.207 67.7153 287.601 67.8804 289.004 68.1285C288.591 58.8022 288.344 50.3836 288.344 39.5709V34.2056ZM262.426 48.9804C262.426 36.3522 266.47 32.8024 269.938 32.8024C274.23 32.8024 277.284 37.2598 277.284 47.4947C277.284 59.3791 273.982 64.0843 269.524 64.0843C265.811 64.0843 262.426 60.2054 262.426 48.9804Z" fill="white"/>
<path d="M111.684 151.104H107.806V154.701H112.128V155.781H106.519V145.806H111.907V146.886H107.806V150.038H111.684V151.104Z" fill="white"/>
<path d="M114.825 154.212C115.402 154.567 116.246 154.863 117.133 154.863C118.451 154.863 119.22 154.168 119.22 153.161C119.22 152.229 118.688 151.696 117.341 151.178C115.712 150.601 114.707 149.757 114.707 148.352C114.707 146.797 115.994 145.643 117.933 145.643C118.955 145.643 119.694 145.879 120.138 146.131L119.783 147.182C119.458 147.004 118.792 146.708 117.888 146.708C116.527 146.708 116.009 147.522 116.009 148.203C116.009 149.136 116.616 149.595 117.992 150.127C119.679 150.778 120.538 151.593 120.538 153.058C120.538 154.598 119.398 155.93 117.044 155.93C116.083 155.93 115.032 155.648 114.5 155.293L114.825 154.212Z" fill="white"/>
<path d="M124.877 146.9H121.843V145.806H129.229V146.9H126.18V155.781H124.877V146.9Z" fill="white"/>
<path d="M130.296 155.012C130.296 154.464 130.667 154.079 131.185 154.079C131.703 154.079 132.058 154.464 132.058 155.012C132.058 155.545 131.717 155.944 131.169 155.944C130.652 155.944 130.296 155.545 130.296 155.012Z" fill="white"/>
<path d="M141.623 147.374H141.593L139.92 148.277L139.668 147.285L141.77 146.16H142.88V155.781H141.623V147.374Z" fill="white"/>
<path d="M148.344 154.863C148.625 154.894 148.95 154.863 149.395 154.819C150.149 154.716 150.86 154.404 151.407 153.887C152.044 153.31 152.503 152.466 152.681 151.326H152.636C152.104 151.978 151.334 152.362 150.371 152.362C148.64 152.362 147.529 151.06 147.529 149.417C147.529 147.597 148.847 145.998 150.815 145.998C152.784 145.998 153.998 147.597 153.998 150.054C153.998 152.17 153.287 153.65 152.34 154.567C151.6 155.293 150.579 155.737 149.543 155.855C149.069 155.93 148.654 155.944 148.344 155.93V154.863ZM148.817 149.328C148.817 150.527 149.543 151.37 150.668 151.37C151.541 151.37 152.222 150.941 152.562 150.364C152.636 150.246 152.681 150.098 152.681 149.891C152.681 148.247 152.073 146.989 150.712 146.989C149.602 146.989 148.817 147.967 148.817 149.328Z" fill="white"/>
<path d="M156.842 154.863C157.123 154.894 157.448 154.863 157.893 154.819C158.647 154.716 159.358 154.404 159.905 153.887C160.542 153.31 161.001 152.466 161.179 151.326H161.134C160.602 151.978 159.832 152.362 158.869 152.362C157.138 152.362 156.027 151.06 156.027 149.417C156.027 147.597 157.345 145.998 159.313 145.998C161.282 145.998 162.496 147.597 162.496 150.054C162.496 152.17 161.785 153.65 160.838 154.567C160.098 155.293 159.077 155.737 158.041 155.855C157.567 155.93 157.152 155.944 156.842 155.93V154.863ZM157.315 149.328C157.315 150.527 158.041 151.37 159.166 151.37C160.039 151.37 160.72 150.941 161.061 150.364C161.134 150.246 161.179 150.098 161.179 149.891C161.179 148.247 160.571 146.989 159.21 146.989C158.1 146.989 157.315 147.967 157.315 149.328Z" fill="white"/>
<path d="M167.709 147.374H167.68L166.007 148.277L165.755 147.285L167.856 146.16H168.967V155.781H167.709V147.374Z" fill="white"/>
<path d="M191.85 152.686V148.672L288.001 150.729L191.85 152.686Z" fill="white"/>
<path d="M95.7452 152.686V148.672L-0.40625 150.729L95.7452 152.686Z" fill="white"/>
</g>
<defs>
<clipPath id="clip0_467_12559">
<rect width="289" height="156" fill="white"/>
</clipPath>
</defs>
</svg>
